# xmcd
#
# Track frame offsets:
#	150
#	16653
#	34740
#	48442
#	69731
#	86815
#	104714
#	114867
#	126942
#	138465
#	161195
#	175007
#
# Disc length: 2541 seconds
#
# Revision: 1
# Processed by: cddbd v1.5.2PL0 Copyright (c) Steve Scherf et al.
# Submitted via: audiograbber 1.83.01
#
DISCID=a309eb0c
DTITLE=John Doe - Keeper
DYEAR=2011
DGENRE=Country
TTITLE0=Don't Forget How Much I Love You
TTITLE1=Never Enough
TTITLE2=Little Tiger
TTITLE3=Giant Step Backward
TTITLE4=Walking Out the Door
TTITLE5=Moonbeam
TTITLE6=Sweetheart
TTITLE7=Handsome Devil
TTITLE8=Jump Into My Arms
TTITLE9=Lucky Penny
TTITLE10=Cottage in the 'Dale
TTITLE11=Painting the Town Blue
EXTD=
EXTT0=
EXTT1=
EXTT2=
EXTT3=
EXTT4=
EXTT5=
EXTT6=
EXTT7=
EXTT8=
EXTT9=
EXTT10=
EXTT11=
PLAYORDER=
